<svg width="182" height="54" viewBox="0 0 182 54" fill="none" xmlns="http://www.w3.org/2000/svg">
<path fill-rule="evenodd" clip-rule="evenodd" d="M1.5 33.5L64.1877 25.3161L64.3316 20.1723V20.2083C64.2597 20.2442 64.1877 20.2802 64.1158 20.2802L64.0798 20.3162C64.0079 20.3521 63.936 20.3521 63.8281 20.3881C63.7561 20.4241 63.6842 20.4601 63.6123 20.496H63.5763C63.5044 20.532 63.4324 20.568 63.3605 20.568L63.3245 20.6039C63.2166 20.6039 63.1447 20.6399 63.0728 20.6759C63.0008 20.7119 62.8929 20.7119 62.821 20.7478H62.785C62.7131 20.7838 62.6411 20.7838 62.5692 20.8198H62.5332C62.4613 20.8557 62.3534 20.8557 62.2815 20.8917H62.2455C62.1736 20.8917 62.1016 20.9277 61.9937 20.9277C61.9218 20.9637 61.8499 20.9637 61.742 20.9996H61.706C61.6341 20.9996 61.5621 21.0356 61.4902 21.0356H61.4542C61.3463 21.0716 61.2744 21.0716 61.2025 21.0716H61.1665C61.0946 21.1075 60.9867 21.1075 60.9147 21.1075C60.8068 21.1075 60.7349 21.1435 60.627 21.1435H60.591C60.5191 21.1435 60.4472 21.1435 60.3393 21.1435C60.2314 21.1435 60.1594 21.1795 60.0875 21.1795H60.0515C59.9436 21.1795 59.8717 21.1795 59.7638 21.1795C53.6494 21.1795 48.6859 16.2155 48.6859 10.0645C48.6859 9.99254 48.6859 9.88463 48.6859 9.81269V9.77672C48.6859 9.70477 48.6859 9.59686 48.6859 9.52492V9.45298C48.6859 9.38104 48.6859 9.3091 48.6859 9.23715V9.20118C48.7219 9.09327 48.7219 9.02133 48.7219 8.94939V8.91342C48.7219 8.84147 48.7579 8.76953 48.7579 8.66162V8.62565C48.7579 8.55371 48.7938 8.48177 48.7938 8.40982V8.37385C48.8298 8.26594 48.8298 8.194 48.8298 8.12206V8.08609C48.8658 8.01414 48.8658 7.9422 48.9017 7.83429C48.9017 7.72638 48.9377 7.65444 48.9377 7.58249L48.9737 7.54652C48.9737 7.47458 49.0096 7.40264 49.0096 7.3307L49.0456 7.25876L49.0816 7.04293V7.00696C49.1175 6.93502 49.1535 6.86308 49.1535 6.79114L49.1895 6.75516C49.1895 6.68322 49.2254 6.61128 49.2614 6.53934V6.4674L49.3333 6.28754L49.3693 6.2156C49.3693 6.17963 49.4053 6.10769 49.4412 6.03575V5.96381L49.5132 5.78395L49.5491 5.71201L49.6211 5.53216L49.657 5.46021L49.729 5.31633L49.8009 5.20842L49.8369 5.06453L49.9088 4.95662L49.9807 4.84871L50.0527 4.70483L50.1246 4.59691L50.1606 4.489L50.2325 4.38109L50.3404 4.2372L50.3764 4.16526L50.4483 4.02138L50.5202 3.94944L50.5922 3.80555H50.6282L50.6641 3.69764L50.7361 3.58973L50.808 3.51779L50.844 3.48182L50.9519 3.33793L50.9878 3.30196L51.0957 3.15808V3.12211L51.1677 3.05017L51.2396 2.94225L14.1575 0.640119L13.7259 0.604148C10.8126 0.424293 7.93524 0.208468 5.02191 0.0286139C2.25245 -0.15124 -0.265246 0.316381 0.0224906 7.40264L1.5 33.5Z" fill="white"/>
<path fill-rule="evenodd" clip-rule="evenodd" d="M8.51072 53.841C6.7843 54.1647 2.46825 52.4381 2.25245 49.2367L1.5 36.5L64.1518 27.906C64.1518 31.7189 63.936 37.798 60.4112 38.8052L8.51072 53.841Z" fill="white"/>
<path d="M59.7639 18.3379C64.3326 18.3379 68.0363 14.6338 68.0363 10.0646C68.0363 5.49534 64.3326 1.79126 59.7639 1.79126C55.1951 1.79126 51.4915 5.49534 51.4915 10.0646C51.4915 14.6338 55.1951 18.3379 59.7639 18.3379Z" fill="white"/>
<path d="M177.42 25.8918C177.384 24.381 176.844 23.0861 175.873 22.0429C174.902 20.9998 173.499 20.4602 171.593 20.4602C170.73 20.4602 169.939 20.6401 169.255 20.9278C168.572 21.2516 167.961 21.6472 167.493 22.1868C165.407 24.3451 165.155 29.2371 166.234 31.863C166.558 32.6543 166.989 33.3378 167.565 33.9133C168.14 34.4888 168.824 34.9205 169.615 35.2083C170.37 35.532 171.198 35.6759 172.097 35.6759C173.823 35.6759 175.154 35.2802 176.053 34.4529C176.305 34.2011 176.557 33.9493 176.772 33.6975V38.2658C176.377 38.4816 175.945 38.6615 175.478 38.8053C174.471 39.1651 173.32 39.3449 172.097 39.3449C170.694 39.3449 169.327 39.0931 168.032 38.5895C166.738 38.0859 165.623 37.3665 164.616 36.3953C163.645 35.4241 162.853 34.237 162.278 32.8342C161.702 31.3954 161.415 29.8126 161.415 28.0141C161.415 26.3235 161.702 24.8127 162.278 23.4458C162.817 22.0789 163.573 20.8919 164.472 19.9206C165.407 18.9494 166.486 18.1581 167.745 17.6185C168.968 17.0789 170.226 16.8271 171.557 16.8271C173.176 16.8271 174.614 17.0789 175.909 17.6185C177.204 18.1581 178.247 18.9135 179.11 19.8847C179.974 20.8559 180.621 22.0429 181.053 23.4098C181.52 24.7767 181.736 26.2875 181.736 27.9062C181.736 28.1939 181.736 28.4457 181.736 28.6616C181.7 28.9134 181.7 29.0932 181.664 29.2371H172.025V25.8918H177.42Z" fill="white"/>
<path d="M77 27.3666L81.424 26.3954V29.4169C81.424 31.5392 81.9275 33.086 82.9346 34.0572C83.9776 35.0644 85.3084 35.532 86.9269 35.532C88.5454 35.532 89.8043 35.0284 90.7394 34.0212C91.6746 33.014 92.1421 31.5752 92.1421 29.7407V7.00708H96.5661V29.4169C96.5661 30.8198 96.3503 32.1507 95.9187 33.3737C95.4871 34.5967 94.8397 35.6759 94.0124 36.6111C93.1492 37.5463 92.1421 38.3017 90.9552 38.8413C89.7683 39.3809 88.4375 39.6327 86.9629 39.6327C85.4163 39.6327 84.0136 39.4168 82.7547 38.9132C81.5319 38.4456 80.4888 37.7622 79.6256 36.8629C78.7984 35.9636 78.115 34.8845 77.6834 33.6255C77.2158 32.3665 77 30.9996 77 29.4529V27.3666Z" fill="white"/>
<path d="M100.523 38.9493V17.2949H104.731V38.9493H100.523ZM99.5874 9.09349C99.5874 8.19422 99.8751 7.47481 100.487 6.89927C101.062 6.28777 101.781 6 102.609 6C103.472 6 104.227 6.28777 104.803 6.89927C105.378 7.47481 105.666 8.19422 105.666 9.09349C105.666 9.92082 105.378 10.6402 104.803 11.2158C104.227 11.7913 103.472 12.0791 102.609 12.0791C101.781 12.0791 101.062 11.7913 100.487 11.2158C99.8751 10.6402 99.5874 9.92082 99.5874 9.09349Z" fill="white"/>
<path d="M111.241 39.2011C111.385 40.7118 111.996 42.0068 113.039 43.014C114.118 44.0212 115.485 44.5248 117.14 44.5248C119.405 44.5248 121.096 43.9132 122.139 42.7622C123.218 41.5751 123.757 39.8126 123.757 37.4745V34.381C123.254 35.3522 122.427 36.2155 121.276 36.8989C120.125 37.5824 118.758 37.9421 117.14 37.9421C115.701 37.9421 114.37 37.6543 113.147 37.1507C111.924 36.6112 110.881 35.8917 109.982 34.9925C109.083 34.0572 108.4 32.9421 107.896 31.6472C107.428 30.3882 107.177 28.9494 107.177 27.4386C107.177 25.9638 107.392 24.5609 107.896 23.3019C108.364 22.007 109.047 20.9279 109.91 19.9567C110.773 19.0214 111.816 18.266 113.039 17.7265C114.262 17.1509 115.629 16.8632 117.14 16.8632C118.83 16.8632 120.197 17.1869 121.312 17.7624C122.427 18.3739 123.254 19.2372 123.793 20.3164V17.2948H128.002V37.3306C128.002 38.7334 127.822 40.0644 127.462 41.3953C127.102 42.6902 126.491 43.8413 125.628 44.8485C124.765 45.8557 123.65 46.683 122.283 47.2945C120.88 47.906 119.19 48.1938 117.14 48.1938C115.773 48.1938 114.514 48.0139 113.363 47.6182C112.212 47.1866 111.169 46.647 110.306 45.9276C109.407 45.1722 108.687 44.3449 108.148 43.3737C107.572 42.4025 107.249 41.3233 107.105 40.1363L111.241 39.2011ZM117.751 34.381C119.585 34.381 121.096 33.7335 122.211 32.4745C123.362 31.2155 123.937 29.5249 123.937 27.4386C123.937 25.3163 123.362 23.6257 122.211 22.3667C121.096 21.1077 119.585 20.4962 117.751 20.4962C115.881 20.4962 114.334 21.1077 113.219 22.3667C112.068 23.6257 111.493 25.3163 111.493 27.4386C111.493 29.5609 112.068 31.2515 113.183 32.5105C114.298 33.7335 115.845 34.381 117.751 34.381Z" fill="white"/>
<path d="M134.044 39.2011C134.188 40.7118 134.799 42.0068 135.878 43.014C136.921 44.0212 138.288 44.5248 139.943 44.5248C142.244 44.5248 143.899 43.9132 144.978 42.7622C146.021 41.5751 146.561 39.8126 146.561 37.4745V34.381C146.057 35.3522 145.23 36.2155 144.079 36.8989C142.964 37.5824 141.561 37.9421 139.943 37.9421C138.504 37.9421 137.173 37.6543 135.95 37.1507C134.727 36.6112 133.684 35.8917 132.785 34.9925C131.922 34.0572 131.239 32.9421 130.735 31.6472C130.231 30.3882 129.98 28.9494 129.98 27.4386C129.98 25.9638 130.231 24.5609 130.699 23.3019C131.167 22.007 131.85 20.9279 132.713 19.9567C133.612 19.0214 134.655 18.266 135.878 17.7265C137.065 17.1509 138.432 16.8632 139.943 16.8632C141.633 16.8632 143.036 17.1869 144.151 17.7624C145.266 18.3739 146.057 19.2372 146.632 20.3164V17.2948H150.805V37.3306C150.805 38.7334 150.625 40.0644 150.265 41.3953C149.905 42.6902 149.294 43.8413 148.431 44.8485C147.568 45.8557 146.453 46.683 145.086 47.2945C143.683 47.906 141.993 48.1938 139.943 48.1938C138.576 48.1938 137.353 48.0139 136.166 47.6182C135.015 47.1866 134.008 46.647 133.109 45.9276C132.21 45.1722 131.49 44.3449 130.951 43.3737C130.411 42.4025 130.052 41.3233 129.944 40.1363L134.044 39.2011ZM140.59 34.381C142.424 34.381 143.899 33.7335 145.05 32.4745C146.165 31.2155 146.74 29.5249 146.74 27.4386C146.74 25.3163 146.165 23.6257 145.05 22.3667C143.899 21.1077 142.424 20.4962 140.59 20.4962C138.684 20.4962 137.173 21.1077 136.022 22.3667C134.871 23.6257 134.296 25.3163 134.296 27.4386C134.296 29.5609 134.871 31.2515 135.986 32.5105C137.137 33.7335 138.648 34.381 140.59 34.381Z" fill="white"/>
<path d="M154.329 38.9493V6.32373H158.573V38.9493H154.329Z" fill="white"/>
</svg>
